<svg viewBox="0 0 80 80" fill="none" xmlns="http://www.w3.org/2000/svg">
	<path fill-rule="evenodd" clip-rule="evenodd" d="M13.0581 17.9097C13.0581 12.4387 17.4968 8 22.9677 8C50.0129 8 72 29.9871 72 56.929C72 62.4 67.5613 66.8387 62.0903 66.8387C56.6194 66.8387 52.1806 62.4 52.1806 56.929C52.1806 40.8258 39.071 27.8194 22.9677 27.8194C17.4968 27.8194 13.0581 23.3806 13.0581 17.9097ZM8 56.929C8 48.7742 14.7097 42.0645 22.9677 42.0645C31.2258 42.0645 37.9355 48.7742 38.0387 56.929C38.0387 65.2903 31.2258 72 22.9677 72C14.7097 72 8 65.2903 8 56.929Z" fill="#D22153"/>
</svg>
